<?xml version="1.0" encoding="UTF-8"?>
<svg id="Capa_2" data-name="Capa 2" xmlns="http://www.w3.org/2000/svg" viewBox="0 0 174.31 174.14">
  <defs>
    <style>
      .cls-1 {
        fill: #fff;
      }

      .cls-2 {
        fill: #09091e;
      }

      .cls-3 {
        fill: #5ff9f5;
      }
    </style>
  </defs>
  <g id="PRINT">
    <g id="CUSTOM-group">
      <g>
        <g>
          <path class="cls-3" d="m171.76,97.81c-1.41,0-2.55-1.14-2.55-2.55v-16.37c0-1.41,1.14-2.55,2.55-2.55s2.55,1.14,2.55,2.55v16.37c0,1.41-1.14,2.55-2.55,2.55Z"/>
          <path class="cls-3" d="m161.2,114.45c-1.41,0-2.55-1.14-2.55-2.55v-49.65c0-1.41,1.14-2.55,2.55-2.55s2.55,1.14,2.55,2.55v49.65c0,1.41-1.14,2.55-2.55,2.55h0Z"/>
          <path class="cls-3" d="m150.63,108.89c-1.41,0-2.55-1.14-2.55-2.55v-38.54c0-1.41,1.14-2.55,2.55-2.55s2.55,1.14,2.55,2.55v38.54c0,1.41-1.14,2.55-2.55,2.55Z"/>
          <path class="cls-3" d="m140.07,126.02c-1.41,0-2.55-1.14-2.55-2.55V50.68c0-1.41,1.14-2.55,2.55-2.55s2.55,1.14,2.55,2.55v72.79c0,1.41-1.14,2.55-2.55,2.55h0Z"/>
          <path class="cls-3" d="m129.5,136.34c-1.41,0-2.55-1.14-2.55-2.55V40.35c0-1.41,1.14-2.55,2.55-2.55s2.55,1.14,2.55,2.55v93.44c0,1.41-1.14,2.55-2.55,2.55Z"/>
          <path class="cls-3" d="m118.94,158.67c-1.41,0-2.55-1.14-2.55-2.55V18.03c0-1.41,1.14-2.55,2.55-2.55s2.55,1.14,2.55,2.55v138.09c0,1.41-1.14,2.55-2.55,2.55Z"/>
          <path class="cls-3" d="m108.37,151.69c-1.41,0-2.55-1.14-2.55-2.55V25c0-1.41,1.14-2.55,2.55-2.55s2.55,1.14,2.55,2.55v124.14c0,1.41-1.14,2.55-2.55,2.55Z"/>
          <path class="cls-3" d="m97.81,166.15c-1.41,0-2.55-1.14-2.55-2.55V10.54c0-1.41,1.14-2.55,2.55-2.55s2.55,1.14,2.55,2.55v153.05c0,1.41-1.14,2.55-2.55,2.55Z"/>
        </g>
        <path class="cls-3" d="m2.55,97.81c-1.41,0-2.55-1.14-2.55-2.55v-16.37c0-1.41,1.14-2.55,2.55-2.55s2.55,1.14,2.55,2.55v16.37c0,1.41-1.14,2.55-2.55,2.55Z"/>
        <path class="cls-3" d="m13.12,114.45c-1.41,0-2.55-1.14-2.55-2.55v-49.65c0-1.41,1.14-2.55,2.55-2.55s2.55,1.14,2.55,2.55v49.65c0,1.41-1.14,2.55-2.55,2.55h0Z"/>
        <path class="cls-3" d="m23.68,108.89c-1.41,0-2.55-1.14-2.55-2.55v-38.54c0-1.41,1.14-2.55,2.55-2.55s2.55,1.14,2.55,2.55v38.54c0,1.41-1.14,2.55-2.55,2.55Z"/>
        <path class="cls-3" d="m34.25,126.02c-1.41,0-2.55-1.14-2.55-2.55V50.68c0-1.41,1.14-2.55,2.55-2.55s2.55,1.14,2.55,2.55v72.79c0,1.41-1.14,2.55-2.55,2.55h0Z"/>
        <path class="cls-3" d="m44.81,136.34c-1.41,0-2.55-1.14-2.55-2.55V40.35c0-1.41,1.14-2.55,2.55-2.55s2.55,1.14,2.55,2.55v93.44c0,1.41-1.14,2.55-2.55,2.55Z"/>
        <path class="cls-3" d="m55.38,158.67c-1.41,0-2.55-1.14-2.55-2.55V18.03c0-1.41,1.14-2.55,2.55-2.55s2.55,1.14,2.55,2.55v138.09c0,1.41-1.14,2.55-2.55,2.55Z"/>
        <path class="cls-3" d="m65.94,151.69c-1.41,0-2.55-1.14-2.55-2.55V25c0-1.41,1.14-2.55,2.55-2.55s2.55,1.14,2.55,2.55v124.14c0,1.41-1.14,2.55-2.55,2.55Z"/>
        <path class="cls-3" d="m76.51,166.15c-1.41,0-2.55-1.14-2.55-2.55V10.54c0-1.41,1.14-2.55,2.55-2.55s2.55,1.14,2.55,2.55v153.05c0,1.41-1.14,2.55-2.55,2.55Z"/>
        <path class="cls-3" d="m87.07,174.14c-1.41,0-2.55-1.14-2.55-2.55V2.55c0-1.41,1.14-2.55,2.55-2.55s2.55,1.14,2.55,2.55v169.04c0,1.41-1.14,2.55-2.55,2.55Z"/>
      </g>
      <g>
        <circle class="cls-2" cx="87.24" cy="87.07" r="45.93" transform="translate(-1.14 1.16) rotate(-.76)"/>
        <g>
          <circle class="cls-1" cx="71.81" cy="104.04" r="8.12" transform="translate(-42.37 158.31) rotate(-80.81)"/>
          <circle class="cls-1" cx="99.2" cy="94.26" r="8.12" transform="translate(-14.92 169.78) rotate(-77.03)"/>
          <path class="cls-1" d="m107.31,61.2c-.18-1.61-1.87-2.66-3.39-2.11l-27.39,9.78c-1.01.36-1.69,1.34-1.69,2.4v32.77c0,1.41,1.14,2.55,2.55,2.55s2.55-1.14,2.55-2.55v-22.17l22.29-7.96v20.35c0,1.41,1.14,2.55,2.55,2.55s2.55-1.14,2.55-2.55v-32.77c0-.1,0-.19-.02-.29h0Zm-27.37,15.26v-3.39l22.29-7.96v3.39l-22.29,7.96Z"/>
          <path class="cls-1" d="m104.59,69.7l-27.38,9.98v-8.89l27.38-9.98v8.89Z"/>
        </g>
      </g>
    </g>
  </g>
</svg>