<?xml version="1.0" encoding="UTF-8"?>
<svg id="Capa_2" data-name="Capa 2" xmlns="http://www.w3.org/2000/svg" viewBox="0 0 956.69 956.69">
  <defs>
    <style>
      .cls-1 {
        fill: #f0f8ff;
      }
    </style>
  </defs>
  <g id="Objects">
    <g>
      <path class="cls-1" d="m478.35,956.69c-64.57,0-127.21-12.65-186.2-37.6-56.96-24.09-108.12-58.58-152.04-102.51-43.92-43.92-78.41-95.08-102.51-152.04C12.65,605.56,0,542.92,0,478.35s12.65-127.21,37.6-186.2c24.09-56.96,58.58-108.12,102.51-152.04,43.92-43.92,95.08-78.41,152.04-102.51C351.13,12.65,413.78,0,478.35,0s127.21,12.65,186.2,37.6c56.96,24.09,108.12,58.58,152.04,102.51,43.92,43.92,78.41,95.08,102.51,152.04,24.95,58.98,37.6,121.63,37.6,186.2s-12.65,127.22-37.6,186.2c-24.09,56.96-58.58,108.12-102.51,152.04-43.92,43.92-95.08,78.41-152.04,102.51-58.99,24.95-121.63,37.6-186.2,37.6Zm0-920.18c-59.66,0-117.52,11.68-171.98,34.71-52.61,22.25-99.86,54.11-140.45,94.7s-72.44,87.84-94.7,140.45c-23.03,54.46-34.71,112.32-34.71,171.98s11.68,117.52,34.71,171.98c22.25,52.61,54.11,99.86,94.7,140.45s87.84,72.44,140.45,94.7c54.46,23.03,112.32,34.71,171.98,34.71s117.52-11.68,171.98-34.71c52.61-22.25,99.86-54.11,140.45-94.7s72.44-87.84,94.7-140.45c23.04-54.46,34.71-112.32,34.71-171.98s-11.68-117.52-34.71-171.98c-22.25-52.61-54.11-99.86-94.7-140.45s-87.84-72.44-140.45-94.7c-54.46-23.03-112.32-34.71-171.98-34.71Z"/>
      <path class="cls-1" d="m683.54,519.95l-292.79,211.08c-33.92,24.46-81.28.22-81.28-41.61v-422.17c0-41.82,47.36-66.06,81.28-41.61l292.79,211.08c28.39,20.47,28.39,62.74,0,83.21Z"/>
    </g>
  </g>
</svg>